<?xml version="1.0" encoding="UTF-8"?>
<!DOCTYPE svg PUBLIC "-//W3C//DTD SVG 1.1//EN" "http://www.w3.org/Graphics/SVG/1.1/DTD/svg11.dtd">
<!-- Creator: CorelDRAW -->
<svg xmlns="http://www.w3.org/2000/svg" xml:space="preserve" width="101.6mm" height="101.6mm" version="1.1" style="shape-rendering:geometricPrecision; text-rendering:geometricPrecision; image-rendering:optimizeQuality; fill-rule:evenodd; clip-rule:evenodd"
viewBox="0 0 10160 10160"
 xmlns:xlink="http://www.w3.org/1999/xlink"
 xmlns:xodm="http://www.corel.com/coreldraw/odm/2003">
 <defs>
  <style type="text/css">
   <![CDATA[
    .fil0 {fill:#1F1D1D}
   ]]>
  </style>
 </defs>
 <g id="Layer_x0020_1">
  <metadata id="CorelCorpID_0Corel-Layer"/>
  <g id="_105553384408288">
   <path class="fil0" d="M5899.84 6541.1l0 0zm-974.31 -594.71l75.92 0 0 12.66 -75.92 0 0 -12.66zm-442.89 -126.54l0 139.2 -75.92 0c3.29,-39.44 12.44,-50.38 24.01,-77.23 22.86,-53.1 0.68,-48.28 51.91,-61.97zm-278.36 101.24l25.3 0 0 37.96c-48.48,-33.7 -5.32,0.06 -25.3,-37.96zm2340.89 37.96l-571.35 1.27c-113.05,-5.78 -36.02,-32.77 -36.02,-102.51l0 -215.1 278.37 0 0 88.58 37.96 0 0 -88.58 278.38 0 0 240.42c0,48.63 34.87,22.63 12.66,75.92zm-1872.72 -37.96l0 0zm139.19 -88.58l50.61 0 0 63.26c0,48.38 3.88,4.61 -12.64,37.96 -55.6,-29.41 -37.97,-12.89 -37.97,-101.22zm-101.23 0l50.62 0 0 88.58 -50.62 0 0 -88.58zm189.8 63.26l101.24 0 0 25.32c-20.16,0 -40.98,1.99 -60.55,-2.73 -27.49,-6.64 -23.52,-7.66 -40.69,-22.59zm-227.76 25.32c-18.39,-10.34 -13.39,-6.14 -37.96,-12.66l0 50.62 -75.92 0 0 -126.54c50.6,0 86.86,-12.63 113.88,88.58zm329 -75.92l0 25.3 -75.92 0c26.81,-36.6 10.29,-25.3 75.92,-25.3zm-113.88 25.3c-32.73,4.07 -3.87,-42.77 -0.42,-15.71 0.03,0.2 0.37,3.34 0.4,3.67 0.08,1.1 10.55,10.73 0.02,12.04zm-215.12 -25.3c0,-32.37 20.04,-2.03 7.53,0 -0.15,0.01 -7.53,35.31 -7.53,0zm-442.87 -63.28l63.28 0 0 164.5c-42.66,-31.25 -63.28,-90.83 -63.28,-164.5zm240.42 0l3.77 3.78c-0.24,-0.25 -5.02,-2.52 -3.77,-3.78zm-121.76 166.91l-4.78 -166.91 88.58 0 -83.8 166.91zm-814.59 -293.43l3.76 3.76c-0.24,-0.25 -5.02,-2.51 -3.76,-3.76zm-101.24 -50.62l3.78 3.76c-0.25,-0.23 -5.04,-2.51 -3.78,-3.76zm1088.19 126.54l-291.02 0 164.5 -1569.04 113.88 63.26c0,265.73 0,531.45 0,797.17 0,101.09 32.88,509.29 2.66,573.15 -18.98,40.08 -35.96,-5.92 -15.68,57.89 16.03,50.35 8.09,11.57 16.5,35.29 8.45,23.84 8.31,3.65 9.16,42.28zm1923.33 -189.8l88.58 0c-23.7,20.59 -42.73,29.08 -88.58,0zm-506.13 0l88.56 0 0 12.64 -88.56 0 0 -12.64zm923.7 -63.28l3.78 3.78c-0.26,-0.25 -5.04,-2.53 -3.78,-3.78zm-1265.34 0l3.78 3.78c-0.26,-0.25 -5.04,-2.53 -3.78,-3.78zm-797.17 -25.3l189.8 0 0 37.96 -189.8 0 0 -37.96zm-50.62 0l25.31 0 0 37.96 -25.31 0 0 -37.96zm-88.57 0l63.27 0 0 37.96 -63.27 0 0 -37.96zm-75.92 0l37.96 0 0 37.96 -37.96 0 0 -37.96zm2100.47 -88.58l177.15 0 0 101.24 -177.15 0 0 -101.24zm-227.76 63.27l75.92 0 0 37.97 -75.92 0 0 -37.97zm-126.54 0l25.32 0 0 37.97 -25.32 0 0 -37.97zm-75.92 0l37.96 0 0 37.97 -37.96 0 0 -37.97zm-75.92 0l37.96 0 0 37.97 -37.96 0 0 -37.97zm-75.92 0l25.31 0 0 37.97 -25.31 0 0 -37.97zm-177.15 0l88.58 0 0 37.97 -88.58 0 0 -37.97zm-316.33 -63.27l177.15 0 0 101.24 -177.15 0 0 -101.24zm-2075.16 75.92l126.52 12.66 -25.3 0c-134.83,0 -99.47,38.67 -101.22,-12.66zm3150.7 -202.45l177.15 0 0 101.23 -177.15 0 0 -101.23zm-1075.54 0l177.15 0 0 101.23 -177.15 0 0 -101.23zm-2138.44 88.57l3.78 3.78c-0.25,-0.26 -5.04,-2.53 -3.78,-3.78zm2960.92 -63.27c27.42,18.37 43.68,23.9 63.26,50.62l-63.26 0 0 -50.62zm-63.28 0l0 50.62 -63.26 0c19.57,-26.72 35.83,-32.25 63.26,-50.62zm-265.72 0l53.42 47.8 -53.42 2.82 0 -50.62zm-126.53 50.62c21.6,-32.26 21.69,-39.51 63.26,-50.62 -4.55,54.75 -7.14,49.26 -63.26,50.62zm-2442.11 -25.31l0 0zm12.64 -12.65l-12.64 12.65 12.64 -12.65zm12.66 -12.66l-12.66 12.66 12.66 -12.66zm2698.17 40.94l-2.99 -104.2 101.24 0 -98.25 104.2zm-154.83 -104.2l113.88 0 0 101.22c-42.1,-28.18 -75.8,-68.13 -113.88,-101.22zm-1252.68 113.88c-12.24,-52.54 -8.24,-20.05 1.55,-67.29 0.31,-1.51 1.18,-5.18 1.45,-6.63 10.04,-54.25 -41.89,-39.96 136.18,-39.96l12.66 227.76 -417.57 0 0 -227.76c183.66,0 122.27,-17.66 143.76,79.14 7.67,34.49 -32.51,34.74 121.97,34.74zm1569.02 -227.76c0,-32.37 20.04,-2.03 7.52,0 -0.15,0.02 -7.52,35.32 -7.52,0zm227.76 -139.2l126.54 0c29.14,0 37.96,8.8 37.96,37.96l0 75.92 -164.5 0 0 -113.88zm-189.8 37.96c0,-29.16 8.8,-37.96 37.96,-37.96l113.88 0 0 113.88 -151.84 0 0 -75.92zm-544.11 -37.96l88.58 0 0 113.88 -88.58 0 0 -113.88zm-177.14 37.96c0,-50.44 35.85,-37.96 126.54,-37.96 49.2,0 37.96,32.46 37.96,113.88l-164.5 0 0 -75.92zm-2062.51 63.28l0 -12.66c0,-71.09 93.38,-61.17 98.77,1.6 6.5,75.55 -98.77,75.2 -98.77,11.06zm1189.42 -291.04c29.55,0 42.89,-2.32 70.87,5.07 40.83,10.77 -9.84,-3.05 27.45,10.5 9.69,3.53 -4.27,6.19 28.22,9.75l0 328.98 -126.54 0 -5.77 -93.4c0.55,-2.78 1.79,-6.3 2.35,-9.42l3.42 -251.48zm-151.84 354.3l-126.53 0 0 -328.98c47.15,-5.17 11.6,-25.32 126.53,-25.32l0 240.42c0,46.33 19.53,5.31 6.15,68.23 -4.91,23.13 -6.15,16.61 -6.15,45.65zm-1151.46 -126.54c59.99,1.35 50.17,-0.49 75.92,37.96 -11.69,43.76 -6.86,38.93 -50.62,50.62 -54.79,-36.69 -40.19,-26.39 -25.3,-88.58zm215.1 -25.3c21.87,-21.86 42.45,34.25 11.26,9.7 -1.09,-0.87 -29.86,8.91 -11.26,-9.7zm-303.68 25.3c14.95,-40.04 -27.47,-18.14 37.96,-25.3l-37.96 25.3zm3176.02 -151.84l164.5 0 0 101.24 -164.5 0 0 -101.24zm-189.8 0l151.84 0 0 101.24 -151.84 0 0 -101.24zm-544.11 0l88.58 0 0 101.24 -88.58 0 0 -101.24zm-177.14 0l164.5 0 0 101.24 -164.5 0 0 -101.24zm518.79 -75.92c31.82,23.31 92.73,124.51 113.88,164.5l-113.88 0 0 -164.5zm-37.96 -12.64l0 177.14 -113.88 0 96.66 -156.41c17.68,-23.04 6.74,-8.67 17.22,-20.73zm50.62 -25.32l101.22 0 0 151.84 -101.22 -151.84zm-177.15 164.5l0 -164.5 113.88 0 -113.88 164.5zm278.37 -354.3l0 151.84 -101.22 0c10.11,-37.89 73.68,-131.65 101.22,-151.84zm-278.37 -12.65c30.92,22.66 102.63,122.33 113.88,164.49l-113.88 0 0 -164.49zm-1214.73 -75.92l-12.66 227.77c0,-38.05 0.16,-76.1 -0.24,-114.14 -0.45,-40.93 -5.63,-84.42 12.9,-113.63zm-177.15 0l0 0zm253.07 63.26l37.96 0 0 126.54 -37.96 0 0 -126.54zm-328.99 0l0 126.54 -37.96 0c0,-76.42 -20.55,-110.92 37.96,-126.54zm1632.29 126.54l0 -189.8 113.88 0c-1.45,65.58 -14.81,55.73 -48.12,103.72 -22.72,32.72 -35.77,64.12 -65.76,86.08zm-164.49 -189.8l126.53 0 0 202.45 -126.53 -202.45zm-1214.73 0l12.66 -75.92c0,24.39 2.07,52.7 -12.66,75.92zm-177.15 0c-9.56,-15.06 -5.68,0.23 -10.47,-27.48 -3.08,-17.8 -2.18,-30.53 -2.18,-48.44l12.65 0 0 75.92zm265.73 -37.96c0.06,-4.21 13.31,-1.42 15.81,-1.03 1.87,0.31 14.64,-28.8 11.13,3.72 0,0.06 -1.21,1.48 -1.34,1.51 -0.27,0.06 -3.35,0.64 -3.83,0.64 -8.1,-0.1 -22.25,27.77 -21.77,-4.84zm-379.61 0c0.06,-4.21 13.32,-1.42 15.81,-1.03 1.87,0.31 14.65,-28.8 11.14,3.72 -0.21,2.03 -27.41,29.09 -26.95,-2.69zm430.21 -25.31c0,-32.36 20.04,-2.02 7.53,0 -0.15,0.02 -7.53,35.33 -7.53,0zm-88.56 0c0,-32.36 20.02,-2.02 7.51,0 -0.15,0.02 -7.51,35.33 -7.51,0zm-291.04 0c0,-32.36 20.04,-2.02 7.53,0 -0.15,0.02 -7.53,35.33 -7.53,0zm-88.57 0c0,-32.36 20.03,-2.02 7.52,0 -0.15,0.02 -7.52,35.33 -7.52,0zm417.57 -37.97c13.45,-13.45 47.99,20.09 14.09,6.58 -0.28,-0.1 -35.29,14.62 -14.09,-6.58zm-379.61 0c8.16,-8.16 53.74,-9.16 26.08,13.77 -21.4,17.71 -32.71,-7.13 -26.08,-13.77zm101.23 -113.88l12.65 0c0,59.53 -4.63,61.28 23.56,90.33 1.55,1.62 5.69,4.4 7.04,5.62 1.36,1.24 5.08,3.3 7.36,5.29l-50.61 0 0 -101.24zm278.38 63.28c13.45,-13.45 47.99,20.09 14.09,6.58 -0.28,-0.12 -35.29,14.61 -14.09,-6.58zm-379.61 0c13.45,-13.45 47.99,20.09 14.1,6.58 -0.29,-0.12 -35.29,14.61 -14.1,-6.58zm1670.25 -215.12l58.24 80.96c53.11,79.57 55.64,63.92 55.64,134.16l-113.88 0 0 -215.12zm-37.96 0l0 215.12 -126.53 0c5.01,-60.12 83.4,-165.47 126.53,-215.12zm-1202.08 202.46c-4.53,-23.94 15.93,-45 8.01,-8.01 -0.18,0.87 0.36,52.19 -8.01,8.01zm-88.56 -12.66c0,-32.35 20.02,-2.01 7.51,0 -0.15,0.03 -7.51,35.33 -7.51,0zm-291.04 0c0,-32.35 20.04,-2.01 7.53,0 -0.15,0.03 -7.53,35.33 -7.53,0zm-75.92 25.32c-26.82,0.39 -3.47,1.44 -4.22,-15.84 -1.02,-23.78 -23.93,-13.75 1.53,-11.12 3,0.31 40.62,26.41 2.69,26.96zm291.04 -63.28l37.96 0 0 101.24 -50.62 0c34.42,-32.65 16.02,8.27 23.36,-39.17 2.51,-16.22 -5.77,-51.01 -10.7,-62.07zm-75.93 12.66c0,-32.37 20.03,-2.03 7.52,0 -0.15,0.03 -7.52,35.33 -7.52,0zm189.81 12.66l0 -25.32 37.96 0c-27.83,40.06 -1.93,8.99 -37.96,25.32zm-379.61 -25.32c8.16,-8.16 53.74,-9.16 26.08,13.77 -21.4,17.71 -32.71,-7.13 -26.08,-13.77zm379.61 -63.26l63.26 0 0 37.96 -63.26 0 0 -37.96zm-101.24 25.3c-4.53,-23.94 15.93,-44.98 8.01,-7.99 -0.18,0.85 0.36,52.17 -8.01,7.99zm-177.14 0c-4.53,-23.94 15.93,-44.98 8.01,-7.99 -0.18,0.85 0.35,52.17 -8.01,7.99zm-1720.87 -12.64c231.63,0 376.09,66.24 495.58,225.65 68.72,91.66 101.95,213.08 111.79,331.1 -61.95,-16.55 -106.41,-94.35 -155.58,-135.46 -33.07,-27.64 -43.4,-31.34 -75.53,-63.66l-296.93 -285.12c-29.29,-28.02 -58.03,-40.71 -79.33,-72.51zm1581.68 -12.66l3.77 3.77c-0.24,-0.24 -5.02,-2.51 -3.77,-3.77zm-75.92 0l3.77 3.77c-0.24,-0.24 -5.02,-2.51 -3.77,-3.77zm620.01 -126.54l164.5 0 0 88.58 -164.5 0 0 -88.58zm-645.33 75.92c0,-34.34 45.27,0 11.35,0.7 -12.78,0.26 -11.35,28.07 -11.35,-0.7zm1822.11 -75.92l101.22 0 0 151.84c-43.36,-31.76 -77.03,-105.81 -101.22,-151.84zm-1935.97 88.58l-12.66 0 0 -189.8 25.3 0c0,81.91 -12.64,125.78 -12.64,189.8zm1758.82 75.92l0 -164.5 113.88 0c-21.16,39.99 -82.06,141.19 -113.88,164.5zm-1569.04 -189.8l50.62 0 0 25.3 -50.62 0 0 -25.3zm569.41 -75.92l164.5 0 0 88.58 -164.5 0 0 -88.58zm1278 -88.58l0 151.84 -101.22 0c16.93,-31.98 27.27,-47.47 47.98,-78.54 9.41,-14.09 15.83,-24.63 25.34,-37.94l27.9 -35.36zm-278.37 -12.64l113.88 164.48 -113.88 0 0 -164.48zm-1619.64 227.76l-50.62 0 0 -126.54c26.45,0.6 35.77,-4.07 40.68,17.6l9.94 108.94zm1784.13 -101.24l0 -202.45 113.88 0c-1.75,78.62 -74.4,157.03 -113.88,202.45zm-164.49 -202.45l126.53 0 0 202.45c-29.4,-21.54 -47.38,-58.63 -70.87,-93.62 -26.51,-39.51 -48.86,-55.79 -55.66,-108.83zm164.49 -253.06c49.85,57.34 113.88,139.91 113.88,215.1l-113.88 0 0 -215.1zm-37.96 0l0 215.1 -126.53 0c4.75,-57.22 92.11,-189.89 126.53,-215.1zm-1834.75 113.88l-25.3 0c0.69,-31.04 -2.02,-28.32 6.05,-57.22 20.37,-73.03 -10.46,-26.91 31.91,-44.02 -18.71,39.01 -12.66,46.41 -12.66,101.24zm1885.37 -151.84l101.22 0 0 151.84 -81.32 -108.49c-15.91,-27.12 -12.61,-29.47 -19.9,-43.35zm-177.15 164.48l0 -164.48 113.88 0c-21.16,39.98 -82.06,141.17 -113.88,164.48zm278.37 -354.28l0 151.84 -37.96 0c0,-38.5 -0.99,-46.79 6.5,-82.09 9.73,-45.9 7.7,-42.42 31.46,-69.75zm-63.26 101.22l0 50.62 -37.96 0c22.49,-42.52 1.04,-23.57 37.96,-50.62zm-139.19 0c36.92,27.05 15.46,8.1 37.96,50.62l-37.96 0 0 -50.62zm-75.92 -113.88c48.63,55.95 37.96,88.13 37.96,164.5l-37.96 0 0 -164.5zm-1467.8 164.5l0 -37.96 50.61 0c-18.16,15.78 8.83,-4.95 -20.66,17.27 -6.23,4.71 -29.29,20.03 -29.95,20.69zm1632.29 -37.96l0 -50.62 37.96 0 -37.96 50.62zm-75.92 -50.62l37.96 0 0 50.62c-36.92,-27.05 -15.46,-8.1 -37.96,-50.62zm75.92 -151.84l50.62 0 0 113.88 -50.62 0 0 -113.88zm-37.96 50.62l0 63.26 -50.61 0c22.44,-42.4 9.45,-35.71 50.61,-63.26zm139.2 25.3c-9.57,-15.07 -5.68,0.22 -10.48,-27.49 -3.08,-17.8 -2.18,-30.53 -2.18,-48.43l25.3 0c-0.63,28.69 -3.9,56.33 -12.64,75.92zm-265.73 -75.92l37.96 0 0 63.26c-35.46,-23.75 -31.35,-11.75 -37.96,-63.26zm75.92 63.26l0 -63.26 50.61 0c-22.42,42.38 -9.45,35.7 -50.61,63.26zm177.15 -189.8c38.41,28.14 25.3,21.86 25.3,88.58l-25.3 0 0 -88.58zm-50.62 75.92l3.78 3.78c-0.25,-0.25 -5.04,-2.53 -3.78,-3.78zm-126.53 -50.61l50.61 0 0 63.27 -50.61 0 0 -63.27zm-37.96 -25.31l0 88.58 -37.96 0c0,-69.26 -7.25,-58.3 37.96,-88.58zm126.53 88.58l0 -63.27 37.96 0c-5.16,62.12 -9.4,35.32 -37.96,63.27zm-88.57 -151.85c0,-27.42 33.18,-63.15 50.61,-75.92l0 139.19 -50.61 0 0 -63.27zm88.57 63.27l0 -75.92c36.34,24.34 96.8,65.8 0,75.92zm88.58 -177.15l25.3 0 0 151.85c-22.21,-25.56 -21.61,-19.19 -25.66,-62.92 -2.17,-23.39 0.36,-63.64 0.36,-88.93zm-253.07 164.5l0 -164.5 37.96 0c0,78.82 13.29,133.76 -37.96,164.5zm189.8 -88.58l0 0zm0 0l-12.65 -12.65 12.65 12.65zm-12.65 -12.65l-14.56 -24.68 14.56 24.68zm-101.23 -12.65l0 -50.62c61.82,45.3 5.89,37.44 0,50.62zm101.23 -50.62l37.96 0 0 50.62c-50.28,-33.67 -18.16,-12.94 -37.96,-50.62zm-12.66 -25.3l0 -25.32 50.62 0c-29.46,40.22 8.72,19.1 -50.62,25.32zm-88.57 -25.32l50.61 0 0 25.32c-58.77,-4.9 -22.12,13.57 -50.61,-25.32zm88.57 -101.22c54.65,4.54 49.36,7.15 50.62,63.26l-50.62 0 0 -63.26zm-37.96 0l0 63.26 -50.61 0c4.29,-51.59 6.5,-51.48 50.61,-63.26zm88.58 -113.88l0 88.58 -50.62 0c1.42,-63.35 11.34,-62.28 50.62,-88.58zm-139.19 88.58l0 -139.2 50.61 0 0 88.58c0,39.6 -22.63,42.34 -50.61,50.62zm88.57 -75.92l0 -63.28 50.62 0c-15.34,22.9 -32.88,42.88 -50.62,63.28zm0 -164.5c32.26,21.59 39.51,21.68 50.62,63.26l-50.62 0 0 -63.26zm-88.57 -113.88c16.86,19.4 50.61,42.28 50.61,75.92l0 101.22 -50.61 0 0 -177.14zm88.57 50.62l0 -88.58 50.62 0 0 151.84c-21.58,-14.45 -50.62,-27.53 -50.62,-63.26zm-91.38 -85.77l53.42 -2.81 0 50.62 -53.42 -47.81zm91.38 -154.66c0,-35.73 29.04,-48.81 50.62,-63.26l0 177.15 -50.62 0 0 -113.89zm-37.96 37.96l0 75.93 -50.61 0c4.35,-52.3 15.98,-52.73 50.61,-75.93zm-50.61 0l0 -151.84 50.61 0 0 88.58c0,36.08 -29.15,48.35 -50.61,63.26zm88.57 -101.22l0 -50.62 37.96 0c-15.28,57.21 -9.66,22.93 -37.96,50.62zm0 -164.5c25.52,18.7 41.16,40.5 50.62,75.92l-50.62 0 0 -75.92zm-88.57 -101.22c17.43,12.76 50.61,48.5 50.61,75.92l0 101.22 -50.61 0 0 -177.14zm88.57 12.64c36.3,-14.64 12.33,-22.55 50.62,-50.6l0 151.84c-45.87,-30.71 -50.62,-27.48 -50.62,-101.24zm-75.92 -37.96l0 0zm0 0l-14.54 -24.67 14.54 24.67zm113.88 -164.48c0,-32.37 20.04,-2.04 7.53,0 -0.15,0.01 -7.53,35.31 -7.53,0zm-126.53 0c0,-32.37 20.03,-2.04 7.52,0 -0.15,0.01 -7.52,35.31 -7.52,0zm0 -366.95l139.19 0c-2.98,35.72 0.3,50.6 -37.96,50.6l-37.96 0c-35.74,0 -48.81,-29.03 -63.27,-50.6zm25.31 -63.28l88.57 0 0 12.66 -88.57 0 0 -12.66zm-2378.86 4125.04l-12.64 -12.66 -12.66 -12.65 -12.66 -12.66 -12.64 -12.65 -12.66 -12.65 -12.66 -12.66c-40.68,-19.51 -136.46,-19.51 -177.14,0l-38.62 -12c-14.15,-1.82 -35.16,-0.65 -49.96,-0.65l354.3 -25.31 0 -101.22 0 -240.42c-50.86,-13.59 -33.52,-23.79 -64.54,-13.21 -2.04,0.69 -5.91,2.9 -7.76,3.7 -2,0.87 -6.41,3.73 -8.06,4.53 -1.72,0.85 -5.2,3.89 -8.22,4.98 -2.69,-121.25 -64.04,-14 -86.15,-128.95 -15.26,-79.28 4.33,-133.25 -27.73,-200.04 33.45,-2.79 54.21,-1.13 42.63,-30.29 -14.38,-36.21 -11.66,-17.83 -55.27,-7.67 -20.22,-86.75 -81.51,-156.43 -126.11,-216.55 -40.07,-54.01 -18.96,-16.51 -13.09,-87.13 -110.89,9.22 15.62,48.71 -147.66,-42.15 -150.51,-83.73 -141.42,-22.64 -143.37,-109.69l-37.96 0c-8.86,36.99 1.63,18.22 -25.3,37.96 -64.02,-14.92 -97.84,-12.66 -177.16,-12.66 -12.76,47.81 -24.4,36.81 -50.6,75.92l344.99 325.64c74.55,74.93 323.16,288.33 338.3,344.99l-50.62 0 0 50.62c-63.13,-5.25 -29.88,-24.56 -75.32,-11.18 -0.02,0 -14.28,8.4 -25.9,11.18l12.64 404.91c0,120.63 16.23,223.14 -17.96,301.42 -18.37,42.07 -34.08,48.34 17.96,52.88l0 25.3c-36.99,8.86 -18.22,-1.63 -37.96,25.32 53.47,5.84 36.41,-19.43 37.96,50.6 55.98,-1.24 89.4,-12.64 164.5,-12.64 0,275.78 161.17,227.76 -442.87,227.76 -244.63,0 -489.27,0 -733.9,0l0 291.03 1429.83 0 0 518.78c283.48,0 365.29,-40.45 569.41,-177.14l0 -341.64 404.91 0 0 493.48c184.99,-43.1 248.83,-127.54 379.6,-215.12 -3.63,43.76 -14.6,61.95 -27.15,99.88l-15.65 67.4c1.15,99.6 109.95,73.14 232.61,73.14l0 -518.78 417.56 0 0 341.64c63.79,-17.04 24.79,-33.58 88.58,-50.62 -1.69,76.03 -36.15,108.23 -37.96,189.8 40.16,26.89 43.62,37.4 113.09,38.77 149.15,2.96 257.22,-32.43 393.04,-64.07l0 -455.52 1442.5 0 0 -291.03 -1126.16 0 0 -455.52 202.46 0c-4.09,-49.08 -13.04,-59.99 -13.09,-126.11 -0.04,-50.71 0.43,-101.54 0.43,-152.28 -248.55,0 -278.38,-65.68 -278.38,88.58 -66.23,-1.48 -123.09,-53.62 -139.18,-113.88 72.59,-34.84 289.98,-12.66 392.26,-12.66 0,-32.08 3.36,-66.58 -4.12,-97.11 -12.48,-50.87 -16.5,-1.84 -21.76,-79.46 -4.05,-59.93 0.56,-140.68 0.56,-203.03l-379.6 0 0 253.06 -37.96 0 0 -2353.53 -63.26 0c0,-129.98 -19.18,-909.72 9.38,-1028.21 14.25,-59.03 -15.35,-29.62 28.58,-47.34l0 -303.69c-58.74,-6.42 -37.96,-11.59 -37.96,-88.56 -23.08,-11.45 -15.83,-9.76 -50.62,-12.66l0 -25.3c33.98,-13.72 14.42,0.31 27.66,-35.96 19.7,-53.95 9.87,-130.92 -27.66,-166.5 -41.25,21.82 -36.59,2 -37.96,63.26l-37.96 0c-1.11,-50.23 0.16,-39.11 -25.3,-63.26 -23.08,11.45 -15.83,9.76 -50.62,12.66 0,42.67 -3.52,100.29 -0.87,140.87 8.38,128.24 9.58,-35.32 38.83,74.23 -36.81,3.06 -42.67,1.65 -57.06,31.51l-15.95 59.97c-43.53,132.88 -8.17,280.95 13.7,385.4 27.38,130.79 8.7,834.01 8.7,1003.58 -51.42,0 -40.74,-4.23 -75.92,12.64l-25.32 2340.89c0,-56.43 25.87,-231.5 -27.39,-250.95 -14.77,-5.4 -240.97,-2.11 -276.27,-2.11 -37.05,-70 -108.34,-133.79 -166.61,-187.7 -55.27,-51.12 -242.63,-27.41 -326.88,-27.41l0 594.71c132.91,0 717.03,-19.72 784.51,12.66 -16.72,62.62 -83.08,112.34 -151.84,113.88l0 -101.23 -265.72 12.65 -12.66 278.39 202.46 0 0 455.52 -721.25 0c0,-41.22 11.54,-97.32 -2.03,-137.16 -11.79,-34.6 11.16,-13.44 -23.27,-27.34l0 -63.26c60.48,-16.16 25.2,-37.5 25.18,-138.98l0.12 -1366.8c97.44,-26.02 36.09,-63.26 215.1,-63.26l0 -253.06c-60.4,0 -152.67,-6.4 -206.07,7.69l-21.72 6.89c-1.79,0.44 -5.3,1.18 -7.17,1.54 -22.9,4.46 -50.91,8.51 -81.36,9.18 -14.17,-53.03 -34.86,-63.26 -88.58,-63.26l0 253.06 -71.48 -3.47c-57.66,0.65 -68.5,-3.48 -100.53,-38.75 -38.81,-42.76 23.29,-46.36 -81.06,-46.36l63.27 -25.3 0 -139.18 -38.98 7.29c-2.21,-0.15 -6.44,-1.08 -8.46,-1.38l18.49 -22.2c47.1,-22.18 24.54,6.23 54.25,-34.33 -31.97,-33.7 -37.22,-37.29 -88.57,-12.66l0 -328.99 105.53 -74.83c102.49,-58.58 12.42,296.32 46.31,441.78l25.31 0c17.74,-76.16 0,-318.76 0,-442.87 73.05,0 86.27,18.04 101.22,-37.96 -28.83,-39.35 -33.82,-25.3 -101.22,-25.3l-0.09 -2530.78c-0.39,-76.7 7.99,-107.31 12.74,-164.41 -67.47,5.62 -40.48,12.5 -37.9,100.28 11.92,404.46 -0.06,811.16 -0.06,1215.67 0,459.76 0,919.5 0,1379.24l-202.46 -12.66c0,144.28 8.63,302.1 -13.63,442.4 -8.38,52.84 -19.26,83.16 13.63,114.35 -129.69,-2.89 26.53,-77.94 -101.22,-88.57l0 113.89 -50.62 0c2.6,-116.56 34.9,-325.69 48.33,-445.16 25.34,-225.2 33.45,-436.18 71.4,-662.51l221.53 -2258.55c7.26,-89.16 32.38,-143.03 38.35,-214.71 -49.16,-4.1 -32.97,-11.42 -88.58,-12.66 0,289.43 -143.28,1578.09 -191.94,2035.07 -12.38,116.2 -22.76,299.01 -50.08,406.27l-14.01 124.35c-0.86,3.41 -2.1,6.73 -3.08,10 -0.89,3.1 -2.51,6.32 -3.43,9.28 -1.2,3.77 -5.61,13.38 -6.5,16.92 -19.12,75.47 -1.89,296.93 -46.21,462.27 -7.72,28.72 -5.04,-7.33 -3.93,22.47l7.87 29.21c3.41,26.45 2.08,17.05 -5.02,47.52 -43.57,-31.91 -34.28,-69.04 -101.22,-113.88 16.75,71.96 35.25,43.78 50.6,101.24 -47.93,-12.81 -31.91,-24.77 -88.56,-37.96 -67.99,45.52 -53.06,39.36 -35.39,110.13 16.12,64.62 -1.38,17.86 3.15,64.98 2.73,28.51 11.15,29.11 19.58,65.29l100.65 -1.98c2.24,-0.57 -5.93,-6.97 38.53,-10.66 -6.92,83.19 -25.3,156.82 -25.3,253.07l-63.26 0 0 253.06c55.31,4.72 37.36,-5.98 16.38,155.58 -26.38,203.21 -31.42,398.67 -61.16,609.5l-13.88 75.49c-14.19,51.14 -10,215.82 -22.48,305.69l-45.4 410.12c-1.93,0.91 -5.62,-1.3 -6.32,1 -7.51,24.51 -48.07,-28.53 -55.27,65.19 -4.43,57.56 -1.68,116.38 -1.68,174.23l-404.92 0c-12.28,-52.77 -15.58,-41.46 -7.34,-108.51 8.33,-67.69 -5.3,-47.63 -5.3,-119.25 72.63,0 96.66,11.42 151.84,12.64l-25.32 -404.9z"/>
   <path class="fil0" d="M1319.3 6705.6c10.89,131.07 200.31,465.72 269.96,603.11 22.99,45.33 38.64,69.66 64.49,112.66 229.42,381.47 469.38,663.62 788.28,970.56 34.49,33.21 54.06,40.95 88.89,75.61 157.49,156.62 543,408.19 728.25,511.77 636.1,355.73 1048.93,438.55 1745.71,531.91 57.33,7.69 115.23,-1.04 171.86,5.29 230.12,25.77 731.51,-19.6 962.55,-66.08 600.64,-120.85 601.66,-156.01 1062.09,-342.45 259.89,-105.25 645.55,-373.64 860.56,-543.96 229.01,-181.39 390.86,-346.47 574.83,-563.98 16.55,-19.58 26.44,-26.01 43.05,-45.52 109.8,-129.07 278.84,-376.81 365.25,-520.5 174.46,-290.09 341.69,-643.98 433.04,-971.5 106.6,-382.2 167.49,-749.7 179.8,-1116.04l0 -276.26c-11.7,-349.16 -68.07,-700.35 -171.66,-1065.3 -195.37,-688.22 -592.9,-1334.81 -1033.58,-1775.48l-360.52 -335.42c-247.36,-220.36 -565.97,-404.57 -863.69,-553.49 -79.84,-39.93 -154.43,-74.69 -244.01,-110.29 -60.42,-24.02 -202.21,-87.18 -262.14,-92.17 9.99,8.68 5.5,6.37 22.46,15.5 114.48,61.5 254.89,108.07 422.86,209.81 216.78,131.31 501.56,306.35 684.01,480.11 36.64,34.92 59.99,47.23 95.14,82.01 29.87,29.56 51.23,54.35 81.84,82.66 36.48,33.74 59.79,42.95 95.33,81.82 31.64,34.6 39.89,53.64 75.47,89.03 240.3,239.06 487.63,581.6 644.51,873.9 455.06,847.91 650.99,1778.88 504.83,2774.12 -28.25,192.28 -69.3,395.11 -122.54,560.75 -55.1,171.45 -108.02,328.76 -180,490.65 -149.6,336.44 -335.57,654.02 -567.98,937.77l-322.67 360.62c-1162.72,1118.82 -2887.29,1474.07 -4430.33,855.22 -322.21,-129.23 -588.8,-276.39 -872.5,-468.75l-638.47 -538.31c-166.04,-172.51 -316.21,-370.46 -461.21,-563.73 -93.17,-124.19 -248.22,-397.18 -315.67,-532.11l-118.09 -223.54z"/>
   <path class="fil0" d="M3723.45 9362.82c-13.12,-11.39 -3.35,-6.61 -29.58,-21.04l-122.32 -54.82c-153.32,-77.42 -317.45,-153.88 -460.61,-247.98 -319.87,-210.31 -529.62,-356.43 -795.2,-622 -298.18,-298.2 -405.5,-413.73 -644.68,-772.5 -253.2,-379.84 -455.87,-796.23 -594.93,-1290.43 -33.9,-120.5 -63.04,-237.75 -91.11,-377.06 -29.56,-146.71 -41.02,-260.93 -61.74,-419.11 -97.2,-742.17 65.03,-1713.72 404.36,-2386.91 134.02,-265.9 179.41,-346.23 343.42,-592.93 65.23,-98.13 127,-175.96 199.47,-268.71 378.56,-484.52 779.01,-772.97 1288.85,-1077.34 318.72,-190.28 1046.68,-442.08 1424.5,-473.52 11.36,-48.77 36.83,-164.43 37.96,-215.11 -282.25,6.29 -914.07,201.42 -1174.96,305.49 -427.31,170.48 -734.08,366.11 -1095.55,637.98 -54.24,40.8 -87.7,73.57 -137.44,115.63 -30.01,25.39 -39.54,27.81 -69.21,57.33 -127.45,126.85 -176.38,149.49 -310.33,309.68l-119.85 133.23c-175.23,196.72 -383.74,494.07 -513.15,726.88 -90.87,163.46 -170.81,327.3 -241.77,504.79 -132.56,331.53 -280.54,829.45 -309.87,1195.89 -11.28,141.03 -21.94,293.74 -26.36,448.63l0 279.64c2.44,73.77 7.07,146.73 14.53,217.81 54.82,522.63 197.38,1087.52 432.54,1554.05 261.36,518.52 622.23,1037.99 1067.6,1412.47 266.02,223.68 311.98,279.15 643.73,482.44 186.08,114.05 757.65,422.22 941.7,437.52z"/>
   <path class="fil0" d="M9417.49 3466.32c-9.56,-115.05 -221.02,-517.85 -286.99,-636.71l-271.67 -424.27c-105.38,-142.71 -186.75,-255.85 -317.81,-390.78l-408.78 -401.06 -332.42 -262.3c-314.88,-232.3 -851.27,-509.17 -1237.44,-622.59 -251.66,-73.92 -478.22,-133.9 -763.02,-173.34l-645.7 -50.36c-99.98,5.26 -62.86,13.15 -228.13,13.15l0 202.45c243.94,0 239.66,-24.45 532.1,-0.68 36.72,2.99 76.5,-1.24 113.27,0.63 499.49,25.39 1176.79,221.35 1611.15,438.7 284.32,142.26 587.12,317.04 833.85,520.07 83.69,68.88 171.78,131.86 247.07,208.46l120.37 107.41c40.66,39.14 74.72,73.2 113.88,113.88l314.67 368.62c110.63,148.51 176.9,225.43 282.1,401.17l323.5 587.55z"/>
   <path class="fil0" d="M5127.97 6642.32c-51.75,13.83 -62.51,53.67 -169.59,96.13 -107.74,42.74 -337.37,93.98 -458.1,63.4 -85.38,-21.63 -87.77,-88.33 -68.24,-172.17 -130.75,87.55 -194.46,131.04 -381.2,162.89 -369.61,63.04 -338.11,-34.21 -327.39,-162.89 -155.7,104.26 -408.42,220.47 -628.34,172.81 -115.69,-25.08 -80.27,-125.15 -80.27,-172.81 -118.52,79.37 -344.67,172.2 -505.78,177.67 -26.57,0.89 -87.7,1.57 -111.82,-2.93 -53.62,-10 -83.36,-39.73 -65.39,-96.7 5.21,-16.51 16.88,-37.34 25.02,-52.74 -213.88,17.8 -162.64,382.64 365.5,213.66 35.55,-11.38 73.81,-22.87 111.27,-40.58 40.54,-19.17 61.11,-36.25 105.28,-46.54 18.42,221.18 482.09,113.17 695.95,0 36.68,69.32 46.75,87.66 127.17,113.24 116.29,37.02 299.66,2.33 415.26,-38.97l166.16 -74.27c45.45,195.05 373.75,127.57 539.56,71.38 67.08,-22.73 111.61,-58 169.03,-71.38 27.99,120.15 177.31,145.58 336.76,121.64 153.42,-23.03 247.91,-62.77 359.19,-121.64 128.93,243.65 534.79,91.96 708.59,0 66.06,124.82 166.46,151.52 349.5,121.73 228.92,-37.23 296.75,-107.2 359.09,-121.73 64.1,275.13 774.84,51.88 822.47,-126.54 -111.43,74.62 -251.97,117.05 -416.74,140.01 -66.93,9.31 -180.6,27.71 -259.69,4.98 -100.77,-28.97 -76.56,-88.33 -57.46,-170.29 -125.29,66.3 -144.46,122.52 -381.21,162.89 -369.6,63.04 -338.1,-34.21 -327.38,-162.89 -137.89,92.32 -167.43,128.14 -379.31,164.8 -411.47,71.18 -329.28,-83.27 -329.28,-164.8 -105.38,70.56 -128.08,115.33 -314.87,153.32 -63.92,13 -122.96,24.06 -203.82,24.29 -149.33,0.43 -116.51,-1.93 -189.92,-51.08l0 -113.89z"/>
   <path class="fil0" d="M3634.87 7515.42c-321.48,0 -316.34,25.88 -316.34,-215.11 0,-162.14 378.65,-91.73 402.6,-73.6 52.76,39.9 46.3,209.14 17.21,252.99 -17.82,26.81 -60.68,35.72 -103.47,35.72zm-518.79 -189.81c0,400.77 78.48,354.31 582.05,354.31 295.83,0 253.08,-175.38 253.08,-417.57 0,-130.4 -60.93,-215.1 -189.8,-215.1l-455.53 0c-166.17,0 -189.8,140.42 -189.8,278.36z"/>
   <path class="fil0" d="M2192.37 7667.26l189.81 0 0 -430.21c75.89,55.59 319.09,430.21 379.6,430.21l253.06 0 0 -620.01 -189.78 0 0 442.86 -315.88 -392.72c-58,-77.3 -78.66,-50.14 -316.81,-50.14l0 620.01z"/>
   <path class="fil0" d="M4558.57 7350.93l-303.67 0 0 -139.2c338.98,0 354.28,-30.11 354.28,88.58 0,29.62 -20.99,50.62 -50.61,50.62zm-493.48 316.33l189.81 0 0 -151.84c394.74,0 354.28,-35.87 354.28,151.84l189.81 0c0,-273.27 -7.94,-160.29 -75.92,-253.07 106.79,-28.51 170.46,-366.94 -139.19,-366.94l-518.79 0 0 620.01z"/>
   <path class="fil0" d="M5659.42 7667.26l670.63 0 0 -151.84 -480.83 0 0 -88.57 455.53 0c0,-184.63 70.43,-139.2 -455.53,-139.2l0 -88.56 480.83 0 0 -151.84 -670.63 0 0 620.01z"/>
   <path class="fil0" d="M6431.29 7249.69c0,461.04 8.84,430.23 556.75,430.23 227.2,0 227.76,-118.1 227.76,-253.07l-189.8 0c-9.67,116.14 -92.68,88.57 -278.39,88.57 -141.84,0 -113.88,-60.91 -113.88,-227.77 0,-52.42 12.05,-64.35 50.29,-76.25 95.44,-29.63 219.93,-7.71 316.67,0.33 16.11,33.6 11.54,13.54 12.65,63.28l202.46 0c0,-288.5 -155.34,-227.76 -582.07,-227.76 -121.77,0 -202.44,80.67 -202.44,202.44z"/>
   <polygon class="fil0" points="7317.02,7667.26 7506.82,7667.26 7506.82,7426.85 7886.43,7426.85 7886.43,7667.26 8076.23,7667.26 8076.23,7047.25 7886.43,7047.25 7886.43,7275.01 7506.82,7275.01 7506.82,7047.25 7317.02,7047.25 "/>
   <path class="fil0" d="M4874.91 7173.77c0,61.43 92.06,37.96 253.06,37.96l0 455.53 202.46 0 0 -455.53c299.43,0 253.07,39.82 253.07,-164.48l-708.59 0 0 126.52z"/>
   <path class="fil0" d="M3748.75 5275.76l12.66 12.65 12.64 12.65 12.66 12.66 12.66 12.65 12.64 12.66c11.65,-18.34 12.66,29.54 12.66,-88.58 -75.63,0 -57.13,-7.3 -88.58,12.65l12.66 12.66z"/>
   <path class="fil0" d="M3723.45 9362.82c16.96,12.84 -26.62,12.66 37.96,12.66l0 -12.66 -37.96 0z"/>
   <polygon class="fil0" points="5127.97,6642.32 5140.63,6642.32 5130.08,6627.57 "/>
   <polygon class="fil0" points="6722.31,1138.07 6722.31,1125.43 6707.55,1135.96 "/>
   <polygon class="fil0" points="9417.49,3466.32 9424.45,3493.52 "/>
   <polygon class="fil0" points="1319.3,6705.6 1312.33,6678.39 "/>
  </g>
 </g>
</svg>
